# xmcd CD database file
# Copyright (C) 1996 Ti Kan
#
# Track frame offsets:
#  150
#  21270
#  44520
#
# Disc length: 872 seconds
#
# Revision: 1
# Processed by: cddbd v1.4b41PL1 Copyright (c) Steve Scherf et al.
# Submitted via: CDWizzard Release:4.15
#
DISCID=20036603
DTITLE=New Edition - Siempre ti
DYEAR=1900
DGENRE=
TTITLE0=Siempre Tu
TTITLE1=Siempre Tu Unplugged
TTITLE2=I'm still in love with you
EXTD=
EXTT0=
EXTT1=
EXTT2=
PLAYORDER=
